# xmcd CD database file
#
# Track frame offsets:
#	150
#	12262
#	28342
#	41480
#	53490
#	70852
#	91587
#	106992
#	121595
#	136412
#	149892
#	160602
#	173072
#	186495
#	200015
#	212260
#	227520
#	237650
#
# Disc length: 3278 seconds
#
# Revision: 13
# Processed by: cddbd v1.5.2PL0 Copyright (c) Steve Scherf et al.
# Submitted via: CDex 1.51
#
DISCID=f40ccc12
DTITLE=Shirley Bassey - Her Greatest Hits
DYEAR=1995
DGENRE=Soul
TTITLE0=Diamonds Are Forever   [1971]
TTITLE1=Something   [1970]
TTITLE2=What Now My Love   [1962]
TTITLE3=I (Who Have Nothing)   [1963]
TTITLE4=Yesterday When I Was Young   [1970]
TTITLE5=Killing Me Softly With His Song   [1973]
TTITLE6=The Fool On The Hill   [1970]
TTITLE7=Where Do I Begin  (Love Story)   [1971]
TTITLE8=With These Hands   [1965]
TTITLE9=Moon River   [1965]
TTITLE10=You'll Never Walk Allone   [1980]
TTITLE11=I Get A Kick Out Of You   [1962]
TTITLE12=The Lady Is A Tramp   [1965]
TTITLE13=As Long As Hee Needs Me   [1960]
TTITLE14=For All We Know   [1972]
TTITLE15=Send In The Clowns   [1975]
TTITLE16=Dommage, Dommage  (Too Bad, Too Bad)   [1971]
TTITLE17=Big Spender   [1967]
EXTD=YEAR: 1995
EXTT0=
EXTT1=
EXTT2=
EXTT3=
EXTT4=
EXTT5=
EXTT6=
EXTT7=
EXTT8=
EXTT9=
EXTT10=
EXTT11=
EXTT12=
EXTT13=
EXTT14=
EXTT15=
EXTT16=
EXTT17=
PLAYORDER=
